<svg xmlns="http://www.w3.org/2000/svg" viewBox="0 0 793 551.73"><defs><style>.cls-1{fill:#e6e6e6;}.cls-2{fill:#2f2e41;}.cls-3{fill:#3f3d56;}.cls-4{fill:#fff;}.cls-5{fill:#6c63ff;}.cls-6{fill:#ffb8b8;}</style></defs><g id="Capa_2" data-name="Capa 2"><g id="Capa_1-2" data-name="Capa 1"><ellipse class="cls-1" cx="158" cy="539.73" rx="158" ry="12"/><path class="cls-2" d="M120.77,122.42c27.5-11.7,61.75-4.29,95.19.86.31-6.23,4.09-13.81.14-18.16-4.81-5.27-4.36-10.82-1.47-16.4,7.38-14.26-3.2-29.44-13.89-42.06A23.67,23.67,0,0,0,181,38.36l-19.8,1.42a23.69,23.69,0,0,0-21.05,16.94h0c-4.73,6.43-7.26,12.84-5.67,19.22-7.08,4.84-8.27,10.68-5.09,17.27q4.05,6.21-.12,12.1A55.74,55.74,0,0,0,121,121.82Z"/><path class="cls-2" d="M774.21,477H213.79A18.79,18.79,0,0,1,195,458.17h0q304.72-35.42,598,0h0A18.79,18.79,0,0,1,774.21,477Z"/><path class="cls-3" d="M793,459.28l-598-1.11,69.31-116.61.33-.56V84a23.75,23.75,0,0,1,23.75-23.76h407.9A23.75,23.75,0,0,1,720.05,84h0V342.77Z"/><path class="cls-4" d="M287.85,76.82a7.76,7.76,0,0,0-7.74,7.74V318.9a7.74,7.74,0,0,0,7.74,7.73h412.3a7.74,7.74,0,0,0,7.74-7.73V84.56a7.76,7.76,0,0,0-7.74-7.74Z"/><path class="cls-2" d="M289.58,357.58a3.33,3.33,0,0,0-3,1.93l-21.36,46.43a3.31,3.31,0,0,0,1.63,4.4,3.26,3.26,0,0,0,1.38.3H717.31a3.32,3.32,0,0,0,3-4.8l-23.21-46.42a3.31,3.31,0,0,0-3-1.84Z"/><circle class="cls-4" cx="492.34" cy="67.98" r="4.97"/><path class="cls-2" d="M448.2,419.48a3.33,3.33,0,0,0-3.2,2.46l-5.36,19.89A3.32,3.32,0,0,0,442,445.9a3.56,3.56,0,0,0,.86.11H544.72A3.31,3.31,0,0,0,548,442.7a3.37,3.37,0,0,0-.18-1.09L541,421.72a3.31,3.31,0,0,0-3.13-2.24Z"/><polygon class="cls-2" points="720.05 337.13 720.05 341.56 264.31 341.56 264.65 341 264.65 337.13 720.05 337.13"/><circle class="cls-5" cx="707.33" cy="77.38" r="77.38"/><path class="cls-4" d="M739.39,111.09H675.28a4.42,4.42,0,0,1-4.42-4.42V68a4.42,4.42,0,0,1,4.42-4.42h64.11A4.42,4.42,0,0,1,743.81,68v38.69A4.42,4.42,0,0,1,739.39,111.09ZM675.28,68v38.69h64.11V68Z"/><path class="cls-4" d="M727.23,68H687.44V50.29c0-12.81,8.37-22.1,19.89-22.1s19.9,9.29,19.9,22.1Zm-35.37-4.42h30.95V50.29c0-10.41-6.36-17.68-15.48-17.68s-15.47,7.27-15.47,17.68Z"/><circle class="cls-4" cx="707.33" cy="86.22" r="4.42"/><path class="cls-1" d="M653.32,247.15H334.68a5.9,5.9,0,0,1-5.9-5.9v-79a5.9,5.9,0,0,1,5.9-5.9H653.32a5.9,5.9,0,0,1,5.9,5.9v79A5.9,5.9,0,0,1,653.32,247.15ZM334.68,158.67a3.54,3.54,0,0,0-3.54,3.54v79a3.55,3.55,0,0,0,3.54,3.54H653.32a3.55,3.55,0,0,0,3.54-3.54v-79a3.54,3.54,0,0,0-3.54-3.54Z"/><circle class="cls-1" cx="384.19" cy="198.7" r="24.04"/><path class="cls-1" d="M439.7,182.67a4,4,0,1,0,0,8H628.56a4,4,0,1,0,0-8Z"/><path class="cls-1" d="M439.7,206.71a4,4,0,0,0,0,8H521a4,4,0,1,0,0-8Z"/><path class="cls-6" d="M263.52,208.33l-58.9,31.31-.75-26.09c19.23-3.21,37.52-8.8,54.43-17.9l6.16-15.22A10.33,10.33,0,0,1,282,177.75h0a10.32,10.32,0,0,1-.91,14.07Z"/><path class="cls-2" d="M119.6,389.13h0a11.55,11.55,0,0,1,1.47-9.36L134,359.91a22.61,22.61,0,0,1,29.33-7.74h0c-5.44,9.26-4.68,17.38,1.88,24.44a117.73,117.73,0,0,0-27.94,19,11.57,11.57,0,0,1-16.08-3A11.71,11.71,0,0,1,119.6,389.13Z"/><path class="cls-2" d="M266.2,363.17h0A22.22,22.22,0,0,1,247.33,374l-86,.65L157.65,353l38-11.19-32.06-24.6,35-41L262.3,335.5A22.19,22.19,0,0,1,266.2,363.17Z"/><path class="cls-2" d="M148,511.05H127.82c-18.07-123.9-36.47-248.15,17.9-294.52L209.84,227l-8.2,54.43-35.79,41Z"/><path class="cls-2" d="M165.65,539.11h0a11.53,11.53,0,0,1-9.36-1.47l-21.86-2.94a22.6,22.6,0,0,1-7.74-29.33h0c9.25,5.44,17.37,4.68,24.43-1.88,5,10.07,13.2,9.45,21,17.94a11.57,11.57,0,0,1-6.52,17.68Z"/><path class="cls-6" d="M195.67,133.77l-37.28-9c6.19-12.67,6.7-26.78,3.73-41.75l25.35-.75C188.26,101,190.67,118.35,195.67,133.77Z"/><path class="cls-5" d="M205.92,249.42c-27.14,18.49-46.32.63-60.95-26.93,2-16.86-1.26-37-7.36-59a40.13,40.13,0,0,1,24.51-48.4h0l32.06,13.42c27.22,22.19,32.58,46.23,22.37,71.58Z"/><path class="cls-6" d="M127.82,152.41,98,168.07l52.94,31.31,7.36,18.17A9.64,9.64,0,0,1,153,230.1l-.48.18h0a9.64,9.64,0,0,1-12.25-6,9.45,9.45,0,0,1-.51-2.57L139,209.07l-67.29-22.2a15.75,15.75,0,0,1-9.87-9.61h0a15.72,15.72,0,0,1,5.9-18.3l54.11-37.12Z"/><path class="cls-5" d="M157.65,155.39c-12.44-5.45-23.75.47-38,5.22l-2.24-39.52c14.18-7.55,27.69-9.59,40.27-3.73Z"/><circle class="cls-6" cx="172.52" cy="78.09" r="23.8"/><path class="cls-2" d="M201,75.09c-23.57,2.31-41.52-1.55-53-12.52V53.73h51Z"/></g></g></svg>